<?xml version="1.0" encoding="UTF-8" standalone="no"?>
<svg width="24px" height="120px" viewBox="0 0 24 120" version="1.1" xmlns="http://www.w3.org/2000/svg" xmlns:xlink="http://www.w3.org/1999/xlink" xmlns:sketch="http://www.bohemiancoding.com/sketch/ns">
    <title>FTP Icon</title>
    <description>Created with Sketch (http://www.bohemiancoding.com/sketch)</description>
    <defs></defs>
    <g id="Page-1" stroke="none" stroke-width="1" fill="none" fill-rule="evenodd" sketch:type="MSPage">
        <g id="cloud" sketch:type="MSLayerGroup" transform="translate(3.000000, 6.000000)" fill="#BBBBBB">
            <path d="M18,8.71671775 C18,7.09967133 16.8075,5.61468296 15.291,5.4640127 C15.318,5.25573323 15.3315,5.02972783 15.3315,4.80372244 C15.3315,2.14926696 13.24755,0 10.6695,0 C8.6175,0 6.8805,1.36046383 6.25095,3.25270505 C5.931,3.159644 5.5935,3.13305513 5.2515,3.11089774 C2.7225,2.94250157 1.4985,3.7933454 1.4985,7.00705344 C1.4985,7.21488977 1.51155,7.41474944 1.54755,7.605303 C0.6615,7.82200229 0,8.64182577 0,9.61630784 C0,10.7512094 1.143,12 2.25,12 L14.85,12 C16.51005,12 18,10.4361313 18,8.71671775 Z M10.9411765,11.3225806 L10.9411765,8.83870968 L13,8.83870968 L9.5,5 L6,8.83870968 L8.05882353,8.83870968 L8.05882353,11.3225806 C8.05882353,11.8936452 8.16176471,12 8.67647059,12 L10.3235294,12 C10.8322647,12 10.9411765,11.8936452 10.9411765,11.3225806 Z M10.9411765,11.3225806" id="Shape" sketch:type="MSShapeGroup"></path>
        </g>
        <g id="cloud-copy" sketch:type="MSLayerGroup" transform="translate(3.000000, 30.000000)" fill="#78B2F2">
            <path d="M18,8.71671775 C18,7.09967133 16.8075,5.61468296 15.291,5.4640127 C15.318,5.25573323 15.3315,5.02972783 15.3315,4.80372244 C15.3315,2.14926696 13.24755,0 10.6695,0 C8.6175,0 6.8805,1.36046383 6.25095,3.25270505 C5.931,3.159644 5.5935,3.13305513 5.2515,3.11089774 C2.7225,2.94250157 1.4985,3.7933454 1.4985,7.00705344 C1.4985,7.21488977 1.51155,7.41474944 1.54755,7.605303 C0.6615,7.82200229 0,8.64182577 0,9.61630784 C0,10.7512094 1.143,12 2.25,12 L14.85,12 C16.51005,12 18,10.4361313 18,8.71671775 Z M10.9411765,11.3225806 L10.9411765,8.83870968 L13,8.83870968 L9.5,5 L6,8.83870968 L8.05882353,8.83870968 L8.05882353,11.3225806 C8.05882353,11.8936452 8.16176471,12 8.67647059,12 L10.3235294,12 C10.8322647,12 10.9411765,11.8936452 10.9411765,11.3225806 Z M10.9411765,11.3225806" id="Shape" sketch:type="MSShapeGroup"></path>
        </g>
        <g id="cloud-copy-2" sketch:type="MSLayerGroup" transform="translate(3.000000, 54.000000)" fill="#94CD47">
            <path d="M18,8.71671775 C18,7.09967133 16.8075,5.61468296 15.291,5.4640127 C15.318,5.25573323 15.3315,5.02972783 15.3315,4.80372244 C15.3315,2.14926696 13.24755,0 10.6695,0 C8.6175,0 6.8805,1.36046383 6.25095,3.25270505 C5.931,3.159644 5.5935,3.13305513 5.2515,3.11089774 C2.7225,2.94250157 1.4985,3.7933454 1.4985,7.00705344 C1.4985,7.21488977 1.51155,7.41474944 1.54755,7.605303 C0.6615,7.82200229 0,8.64182577 0,9.61630784 C0,10.7512094 1.143,12 2.25,12 L14.85,12 C16.51005,12 18,10.4361313 18,8.71671775 Z M10.9411765,11.3225806 L10.9411765,8.83870968 L13,8.83870968 L9.5,5 L6,8.83870968 L8.05882353,8.83870968 L8.05882353,11.3225806 C8.05882353,11.8936452 8.16176471,12 8.67647059,12 L10.3235294,12 C10.8322647,12 10.9411765,11.8936452 10.9411765,11.3225806 Z M10.9411765,11.3225806" id="Shape" sketch:type="MSShapeGroup"></path>
        </g>
        <g id="cloud-copy-3" sketch:type="MSLayerGroup" transform="translate(3.000000, 78.000000)" fill="#E3B551">
            <path d="M18,8.71671775 C18,7.09967133 16.8075,5.61468296 15.291,5.4640127 C15.318,5.25573323 15.3315,5.02972783 15.3315,4.80372244 C15.3315,2.14926696 13.24755,0 10.6695,0 C8.6175,0 6.8805,1.36046383 6.25095,3.25270505 C5.931,3.159644 5.5935,3.13305513 5.2515,3.11089774 C2.7225,2.94250157 1.4985,3.7933454 1.4985,7.00705344 C1.4985,7.21488977 1.51155,7.41474944 1.54755,7.605303 C0.6615,7.82200229 0,8.64182577 0,9.61630784 C0,10.7512094 1.143,12 2.25,12 L14.85,12 C16.51005,12 18,10.4361313 18,8.71671775 Z M10.9411765,11.3225806 L10.9411765,8.83870968 L13,8.83870968 L9.5,5 L6,8.83870968 L8.05882353,8.83870968 L8.05882353,11.3225806 C8.05882353,11.8936452 8.16176471,12 8.67647059,12 L10.3235294,12 C10.8322647,12 10.9411765,11.8936452 10.9411765,11.3225806 Z M10.9411765,11.3225806" id="Shape" sketch:type="MSShapeGroup"></path>
        </g>
        <g id="cloud-copy-4" sketch:type="MSLayerGroup" transform="translate(3.000000, 102.000000)" fill="#F74687">
            <path d="M18,8.71671775 C18,7.09967133 16.8075,5.61468296 15.291,5.4640127 C15.318,5.25573323 15.3315,5.02972783 15.3315,4.80372244 C15.3315,2.14926696 13.24755,0 10.6695,0 C8.6175,0 6.8805,1.36046383 6.25095,3.25270505 C5.931,3.159644 5.5935,3.13305513 5.2515,3.11089774 C2.7225,2.94250157 1.4985,3.7933454 1.4985,7.00705344 C1.4985,7.21488977 1.51155,7.41474944 1.54755,7.605303 C0.6615,7.82200229 0,8.64182577 0,9.61630784 C0,10.7512094 1.143,12 2.25,12 L14.85,12 C16.51005,12 18,10.4361313 18,8.71671775 Z M10.9411765,11.3225806 L10.9411765,8.83870968 L13,8.83870968 L9.5,5 L6,8.83870968 L8.05882353,8.83870968 L8.05882353,11.3225806 C8.05882353,11.8936452 8.16176471,12 8.67647059,12 L10.3235294,12 C10.8322647,12 10.9411765,11.8936452 10.9411765,11.3225806 Z M10.9411765,11.3225806" id="Shape" sketch:type="MSShapeGroup"></path>
        </g>
    </g>
</svg>